<?xml version="1.0" encoding="UTF-8"?><svg id="a" xmlns="http://www.w3.org/2000/svg" viewBox="0 0 640 640"><path d="m.18881,0v629.33335l.00007,6.76635h1.22175c.06287.08789.12976.18206.21417.30069,1.19165.10816,2.25727-.16423,3.45691-.2863.60632.2902,1.34393.54142,2.36121.47176.10949-.00765.26307-.02303.32971.00334,1.06287.42375,2.44087.31616,3.6505.44393,1.08491.11524,2.10968.31942,3.19885.41504.50812.04468,1.1272.0826,1.45771.23926.44121.2089.98889.10132,1.34895.20752.68927.20418,1.47777.02546,2.04932.16764.65741.16333,1.27252.13786,1.90791.1311.81459-.00863,1.46851.1158,2.03052.39062.91052.4453,1.91669.79069,3.24566.93237.68225.07308,1.28083.32528,1.86683.48332,1.32745-.16911,2.52582-.42952,3.83173-.33577,1.32941-.53328,3.065-.67399,4.47736-1.14477.92853.04899,1.90246-.06828,2.87134.1508.62261.14079,1.20941-.11865,1.86183-.29785h2.97985c.14081-.09073.30664-.19792.41289-.2666,1.7854-.15902,3.44634-.32667,5.05561-.20556.7702-.16772,1.37983-.3387,2.17908-.36849.78973-.0293,1.58953-.22868,2.38727-.12922,1.25653.15617,2.64759.07495,3.72449.58464.52435.24837,1.38225.3348,2.20056.51978,2.1134-.00676,4.37616.47989,6.63641.00578.19866-.09562.39733-.19076.69275-.33244,1.80896-.06193,3.72118-.12728,5.7632-.19695.01605-.02214.08093-.11149.19092-.26326.3603.0144.84564-.02881,1.17334.06055.52393.14315.86267.10514,1.30591-.05957.89899-.3339,1.81348-.05428,2.71874.02782,1.29811.6735,2.99505.64666,4.69532.61393.05615-.00098.11249,0,.20795,0,.65021-.20467,1.35674-.32764,2.20966-.33528,1.92146-.01684,3.84619-.07064,5.75721-.16675.50159-.02539.98791-.18107,1.55017-.14648.64563.03939,1.21968.32959,1.96453.05378.49761-.184,1.32319.08073,1.83058-.21379,1.4677.07112,2.97803-.15754,4.41845.1547.23328.05046.55524.00724.93683.00724.15857-.09993.36077-.22721.51111-.32185h1.47956c1.19537-.70858,2.39374-1.41911,3.54754-2.1027,1.09192,0,2.04473.00529,2.99713-.00146.96614-.00666,1.93396.06388,2.82141-.25838.33075-.12012.95013-.05769,1.4267-.07837.83154.26424,1.62982.5179,2.60975.82918.60834.02782,1.47974-.0778,2.32611.13932.28961.07397.79127-.04183,1.51863-.09416-.06488-.0192.17212.1119.3728.09993,1.77966-.10426,3.49872.25024,5.25531.16333,1.7218-.08504,3.36041-.31372,4.51599-1.00545.0899-.05388.08795-.14275.07288-.11629,1.15131-.61776,2.70648-.38722,4.12611-.61776,1.93927.1936,4.01361.45248,5.8534,1.10197.71588,0,1.6742.13452,2.23218-.0341.71235-.21566,1.58576.06779,2.14752-.27905.08489-.0529.47626-.04998.64465-.00391,1.41461.38534,2.68091.0586,3.99981-.17293.11323.04371.23877.09227.41089.15853.97492-.10229,1.94678-.33724,3.01844-.30884.237.00618.46527.13638.69678.1359.23724-.00049.47253-.13354.71057-.13501.86291-.00529,1.703-.00716,2.57013.13599,1.0694.17724,2.22869.23006,3.38849.18636.35077-.01343.7138.04899,1.19989.087.09545-.04329.33172-.15039.56427-.25514.62561,0,1.255-.03459,1.85834.01057.50061.03792.97088.1696,1.51031.27001.00701-.00194.08118-.03653.16284-.04135,1.00751-.05672,1.96258-.26278,2.99737-.23926.42871.0096.90747-.06624,1.20892.16146.96509-.08122,1.57599.39486,2.59094.3439.86945-.04371,1.76141.11532,2.58618.29833.13885.03125.41992.03889.4881-.00098.60455-.35263,1.2287-.07731,1.74408.02116.68829.1311,1.3678.11963,2.06329.15324.85162.04135,1.69177.13638,2.75586.22671.22772.08789.62463.26856,1.07684.40739.43524.13354.92804.22388,1.45245.34636,1.48956-.34538,3.11664-.1018,4.62469-.19027.52441.13314.98419.24935,1.38806.35164.59155-.08643,1.09064-.15894,1.59027-.23154.3811-.24976.76166-.50008,1.15179-.7561.53967,0,1.04205.01676,1.53735-.00382.68603-.02938,1.25476.09456,1.79547.26758.71533.2286,1.02753.24014,2.05878.22721,1.68451-.02166,3.37121-.00676,5.05688-.0048.16138,0,.36761-.01204.47681.02881.92432.3444,1.58551-.00293,2.44964-.19027h3.22912c-.01727.02402-.03455.0485-.05212.07259.88922.13688,1.75989.32421,2.67114.40112,2.31213.19449,4.64251.29639,7.20214.04125,1.14227.49342,2.74603.50585,4.38641.43523.19867-.09505.3974-.19019.61633-.29541h1.25079c.47406-.17676.92926-.32088,1.31842-.4991.32269-.14747.56744-.33439.71753-.42513.81555.04175,1.51459.17432,2.06207.0874,1.58301-.25073,3.18152-.07251,4.81384-.15902.39215-.12345.83612-.26374,1.48376-.46794.82733-.03792,1.90747.03174,2.9776-.14168.61859-.09993,1.24475-.1508,1.68194-.39534,1.01526-.56828,2.35895-.43384,3.65478-.41121.37982.24405.95288.16479,1.39184.12679,1.09161-.09416,2.20233-.12052,3.28369-.28483.68652-.10474,1.52612.01148,2.14453-.25081.57922-.24593,1.45843.07446,1.97009-.25986h3.68209c.12708-.09269.31073-.22624.54272-.39534,1.11017.14795,2.11816.28247,3.18475.42464.26813.12826.58606.28052.92779.44434h1.08838c.13934-.08789.34076-.21566.52893-.3348.98517.10229,1.95935-.12687,2.83172.16431.28967-.13835.60736-.29118.94763-.45403h1.72504c.17841-.11092.38208-.23778.53491-.33292h1.80322c.52466-.2613,1.17535-.36214,1.91125-.32185.73236.03988,1.36572-.07397,1.9292-.21418.05341-.11149.0885-.18449.12604-.26326h1.15106c.27185-.16187.58502-.3488.87469-.52173,1.5188.11336,2.98407-.13884,4.35309.1888.41266-.10806.82532-.21566,1.3114-.34253.14105.04663.31366.10327.591.19459,1.61932-.53947,3.74676-.32911,5.53021-.68213,2.01092-.3973,3.87829.22721,5.98846-.03272.53894-.15518,1.26099-.36271,2.10687-.6058.22021.03703.56451.09463,1.02399.17107.59631-.12874,1.28613-.31226,2.02246-.42561.44977-.06917,1.13129-.1307,1.42664-.02067.58307.21615,1.19092.0485,1.72034.17057.80273.17912,1.60528.35832,2.66186.59472.54468-.0193,1.43463.09367,2.25122-.14608.16357-.04801.53217-.0533.65088.00049.81885.37085,1.9621-.05477,2.81671.27669.13708.0533.63068-.10474.93158-.16.31195.14225.55249.25179.85162.38818.63214-.03264,1.31415-.06723,2.06433-.1057.01575.02116.08514.11483.19464.26278.27789-.05908.54669-.11572.9248-.19596.6344.18977,1.34497.40209,2.06402.61679.68127-.10954,1.31415-.20703,2.07031.00627.70508.19939,1.55945.27669,2.56317.44386.37555.18066.93079.44776,1.48474.71436,1.16461-.26082,2.70245-.04565,3.35516.47941h3.43811c.25806-.14795.57849-.33195.93329-.53516.32544.0918.54919.1547.72559.20418.64691-.06388,1.27234-.12581,2.12244-.21038.40692-.13932,1.01599-.3488,1.72906-.59375.34076.02734.80353.06437,1.5777.12581.4743-.12492,1.28033-.24308,2.14528.0769.15629-.04858.33171-.10238.61759-.19076,1.19157.24837,2.54382.38289,3.93664.32332.21948.10522.41821.20028.63867.30648.98218.07642,1.98889.1547,2.90442.22575.69702-.1984.77869-.61443,1.59399-.6543.06262.02694.18518.07926.3748.16048.20793-.06291.42647-.12874.55798-.16861,1.21143.11003,2.34766.21281,3.4611.31372.05538.10132.09497.1744.15112.27719h1.40234c.24854.12296.44344.21956.62207.30843.35632-.04085.70129-.12306,1.02755-.10864.78198.03467,1.51684-.05135,2.21541-.17863.72738-.13216,1.4209-.27148,1.78918-.69084.39514-.44963,1.47253-.56348,2.33789-.74219.35608-.073.89445-.0783,1.12598.09749.91178-.05184,1.76542-.10042,2.8656-.16284.04431-.0341.22201-.17057.24174-.18586,1.01672-.1014,1.75439-.15812,2.47095-.25179.65023-.08496,1.30664-.32617,1.90796-.29159.91675.0533,1.15405-.55867,1.99866-.34781.19389-.17049.34424-.30257.55298-.48657.93778.0485,1.78064-.08456,2.32385-.40885,2.13672.23348,4.21354.46069,6.43994.70378.97994-.40975,2.09517.05142,3.22567.07731.31364.00676.6086.20369,1.2019.41797,1.30237.09993,3.05969.1744,4.1759.98096h.6532c.1759-.184.36833-.38525.57129-.59708.30139-.06388.62085-.16.96863-.20036,1.07837-.12542,2.11593-.32471,3.25744-.34253.4292-.00666.84709-.1797,1.40531-.30794h1.50631c1.17737.51888,2.62256.25366,4.01013.33439,1.22017.20988,2.1252.79118,3.54256.82772.05009.11003.08346.1835.0732.16089,1.06327.25651,1.9939.48088,3.21985.77677h2.21785c.40714-.10465.73067-.18783,1.13155-.29061.65491.23975,1.3645.4991,2.0297.74219,1.43188.14656,2.84529.20614,3.93746.77922.89172.46794,2.16748.71289,3.30049,1.03808.89921.25798,1.73413.5568,2.71704.75902.66968.13786,1.29956.20946,2.0144.21045,1.19641.00236,2.37699-.01684,3.5804.13638,1.21419.15422,2.47624-.05428,3.71167-.17244.18994-.09083.38863-.18636.63472-.30412.75191.05575,1.53837.13884,2.33337.16724.83834.0293,1.80196-.11776,2.50154.0341,1.1956.25936,2.50928-.04998,3.63525.28678.20223.06055.63037.06241.81726-.00098.6547-.22291,1.37207-.12826,2.05778-.15324.84709.257,1.69299.50585,2.72676.65959.20874-.15374.42997-.31608.6888-.50635.95137.07642,1.95056-.12874,2.87362.16431.15637.04948.44071.00138.66471.00765,1.30465.03939,2.61877-.08594,3.91711.14705.6512.11669,1.55872-.00724,2.3717-.14559.12354.05477.24504.10856.39966.17724,1.08012-.31414,2.43786-.16089,3.55456-.57552.9541-.35449,2.24345-.5044,3.39424-.73306.81278-.16187,1.64193-.30551,2.48401-.46019.07536.03272.19771.08553.2157.09319.88599-.05614,1.67468-.10662,2.36645-.1508.31222.1499.5109.24496.71261.34154,1.69202-.02166,3.14795.3689,4.67781.6298.65999.11239,1.28389.28825,2.06506.13981.34326.20459.65674.39144.90446.53947h1.19389c.06738.09172.13607.18538.22652.30884,1.10718.00724,2.23169.05046,3.0968.48999h3.34765c.72986.42033,1.80444.49958,2.80615.64902.15385.0231.38359-.02979.49642.00821,1.34546.45296,3.0249.54085,4.60888.96028.55123-.03509,1.3337.11003,2.00667-.15715,1.07491.07446,2.17554-.12435,3.25769.1355.44946.10806,1.24674.12638,1.62634.00244.60258-.19653,1.16858-.11247,1.74882-.13501,1.69096-.06535,3.38444-.11629,5.07572-.1797.08521-.00334.15987-.07153.15934-.07153.84387.10994,1.63481.2133,2.73625.35643-.01204-.00724.19446.11865.38086.23201,1.52112-.11532,2.828.17579,4.15014.35449.41992.05721.85388.14705,1.23775.10238,1.08138-.12687,2.19385-.13648,3.27868-.29208,1.31641-.18977,2.73205-.49098,4.07149-.30942,1.00427.13599,2.00268.18449,2.8999.09416.86841-.0874,1.71228-.1014,2.56868-.13501.59733-.15226,1.19763-.30551,1.82727-.46598,1.43245-.07544,2.81872.0481,4.16467.37956.63566.15658,1.4154.22477,2.13851.24014.67749.01489,1.36951-.08553,2.04777-.15275.13855-.01392.22677-.11865.36601-.15951,1.42965-.41886,2.79468-.89445,4.55627-.97852.48657-.0236.96289-.18547,1.40487-.31421,1.22449-.35693,2.55465-.49098,3.96826-.48235.84285.00488,1.68848.02166,2.52807-.00334,1.91821-.05713,3.69389.20614,5.48938.47803.91422.13835,1.90645.15853,2.83447.23006.57275-.29923,1.06335-.55583,1.55591-.81283-.06986-.04419-.19543-.12345-.39836-.25123.73035-.14315,1.38184-.2714,2.27954-.44776,1.84786,0,3.98327.00773,6.11824-.00529.57926-.00334,1.22294.11532,1.72782-.1508.07609-.04036.3302-.0192.49158-.00293.46252.04663.95732.18262,1.36772.13696.39888-.04516.76746-.14511,1.21997-.14461,1.0861.00098,2.09009.14079,3.09656.32235,1.31368.2373,2.76107.29012,3.98804.65282.31771.09367.63037.19165,1.04602.31852.98995.06241,2.16801-.0966,3.49251.13062.73938-.13306,1.67814-.21281,2.729-.0144.77596.14608,1.67895.13166,2.51306.21623.61003.06193,1.22042.14648,1.79268.26366.47835.09806.83459.08024,1.18111-.11816.62463.06251,1.13302.24169,1.95308.08122.85913-.16813,1.97209-.03752,2.9272-.03752,1.07418-.41602,2.33968-.50342,3.53454-.67871.74841-.10954,1.49906-.21623,2.24923-.32332.2002-.02881.42444-.03752.59607-.08837.1864-.05477.32422-.14705.49512-.22918h1.33118c.24377-.11149.48405-.22103.64917-.29639,1.46627-.03369,2.85156-.06388,4.23608-.1014.08822-.00236.16939-.06104.25411-.09269,1.84228.45443,3.20227-.16431,4.9556-.49958.42273-.04468,1.13477.10954,1.81881-.12972.28389-.09944.9233-.06917,1.29512.01245,1.43994.31706,2.95023.32096,4.46712.28726.98543-.02205,1.76786.11247,2.50073.43717,1.15206.51115,2.26123.68603,3.77103.68791.77649.00146,1.48478.09416,2.21492.17391V0H.18881Z"/></svg>