<?xml version="1.0" encoding="UTF-8"?>
<svg preserveAspectRatio="xMidYMid slice" width="120px" height="40px" xmlns="http://www.w3.org/2000/svg" id="a" viewBox="0 0 600 202">
  <path d="m21.75574,67.64215c-1.66016,0-2.92627-.45898-3.7998-1.37598-.87402-.91797-1.31006-2.20508-1.31006-3.86523V29.24957H5.04969c-1.35449,0-2.40283-.37012-3.14502-1.11328-.74316-.74219-1.11377-1.76855-1.11377-3.0791,0-1.35352.37061-2.3916,1.11377-3.1123.74219-.7207,1.79053-1.08105,3.14502-1.08105h33.34717c1.35303,0,2.40137.36035,3.14453,1.08105.74219.7207,1.11377,1.75879,1.11377,3.1123,0,1.31055-.37158,2.33691-1.11377,3.0791-.74316.74316-1.7915,1.11328-3.14453,1.11328h-11.59619v33.15137c0,1.66016-.42578,2.94727-1.27783,3.86523-.85156.91699-2.10742,1.37598-3.76709,1.37598Z"></path>
  <path d="m53.98817,67.64215c-1.61621,0-2.84961-.4375-3.70117-1.31055-.85205-.87305-1.27783-2.11816-1.27783-3.73438V25.31891c0-1.65918.42578-2.91504,1.27783-3.7666.85156-.85254,2.08496-1.27832,3.70117-1.27832,1.57275,0,2.78467.42578,3.63623,1.27832.85156.85156,1.27783,2.10742,1.27783,3.7666v15.59277h-.91748c1.00439-2.13965,2.5-3.78906,4.48779-4.94629,1.98682-1.15723,4.24707-1.73633,6.78076-1.73633,2.57666,0,4.69482.49121,6.35498,1.47363,1.65918.9834,2.9043,2.46875,3.73438,4.45508.8291,1.98828,1.24463,4.51074,1.24463,7.56738v14.87207c0,1.61621-.42578,2.86133-1.27734,3.73438s-2.08643,1.31055-3.70166,1.31055c-1.57227,0-2.78418-.4375-3.63623-1.31055-.85156-.87305-1.27734-2.11816-1.27734-3.73438v-14.41309c0-2.22754-.4043-3.83301-1.21191-4.81543-.80908-.9834-2.04248-1.47461-3.70166-1.47461-2.09668,0-3.76709.65527-5.01221,1.96582-1.24463,1.31055-1.8667,3.05762-1.8667,5.24121v13.49609c0,3.36328-1.63818,5.04492-4.91406,5.04492Z"></path>
  <path d="m98.20985,67.77301c-2.3584,0-4.47754-.45898-6.35498-1.37598-1.87842-.91699-3.34131-2.16211-4.38965-3.73438-1.04785-1.57227-1.57227-3.3418-1.57227-5.30664,0-2.3584.61133-4.22559,1.83447-5.60156,1.22217-1.37598,3.21045-2.3584,5.96191-2.94824s6.39795-.88477,10.94092-.88477h3.47217v5.11035h-3.40674c-2.22754,0-4.02881.12109-5.40479.36035-1.37598.24023-2.3584.64453-2.94824,1.21191-.58936.56836-.88428,1.35449-.88428,2.3584,0,1.22363.42578,2.22754,1.27734,3.01367s2.08545,1.17969,3.70166,1.17969c1.26611,0,2.39111-.29492,3.37402-.88477s1.75781-1.39746,2.32568-2.42383c.56738-1.02539.85205-2.19434.85205-3.50488v-7.53418c0-1.92188-.4375-3.28613-1.31055-4.09473-.87402-.80762-2.3584-1.21191-4.45508-1.21191-1.1792,0-2.45654.1416-3.83252.42578s-2.89404.75293-4.55322,1.4082c-.96143.4375-1.81299.53516-2.55518.29492-.74316-.23926-1.31055-.67676-1.70361-1.31055-.39307-.63281-.58936-1.33105-.58936-2.09668,0-.7627.21777-1.50684.65527-2.22656.43604-.7207,1.15674-1.25586,2.16162-1.60547,2.05273-.8291,3.98535-1.39746,5.79834-1.70312,1.81201-.30566,3.48242-.45898,5.01172-.45898,3.36279,0,6.12598.49121,8.2876,1.47363,2.16211.9834,3.78857,2.49023,4.88086,4.52051,1.09131,2.03125,1.63818,4.6416,1.63818,7.8291v14.54492c0,1.61621-.39307,2.86133-1.1792,3.73438-.78662.87305-1.92285,1.31055-3.40723,1.31055-1.48535,0-2.63184-.4375-3.43945-1.31055-.80859-.87305-1.21191-2.11816-1.21191-3.73438v-2.42383l.4585.39258c-.26172,1.48535-.81885,2.7627-1.67041,3.83301s-1.93262,1.89941-3.24316,2.48926c-1.31006.58984-2.81689.88477-4.52051.88477Z"></path>
  <path d="m128.1493,28.98785c-1.83398,0-3.24268-.42578-4.22559-1.27734-.98242-.85156-1.47412-2.06348-1.47412-3.63672,0-1.61523.4917-2.84961,1.47412-3.70117.98291-.85156,2.3916-1.27734,4.22559-1.27734,1.83447,0,3.23193.42578,4.19336,1.27734.95996.85156,1.44092,2.08594,1.44092,3.70117,0,1.57324-.48096,2.78516-1.44092,3.63672-.96143.85156-2.35889,1.27734-4.19336,1.27734Zm0,38.58789c-1.61621,0-2.84961-.46973-3.70117-1.4082-.85205-.93848-1.27783-2.25977-1.27783-3.96387v-22.40625c0-1.74609.42578-3.08887,1.27783-4.02832.85156-.93945,2.08496-1.40918,3.70117-1.40918,1.57275,0,2.78467.46973,3.63623,1.40918s1.27783,2.28223,1.27783,4.02832v22.40625c0,1.7041-.41602,3.02539-1.24512,3.96387-.83008.93848-2.05322,1.4082-3.66895,1.4082Z"></path>
  <path d="m180.9535,67.77301c-4.979,0-9.2373-.9834-12.77539-2.94824-3.5376-1.96582-6.25684-4.72754-8.15674-8.28809-1.8999-3.55859-2.84961-7.76367-2.84961-12.61133,0-3.625.53418-6.88965,1.60498-9.79492,1.06982-2.90332,2.63086-5.39355,4.68457-7.46875,2.05225-2.07324,4.55322-3.67871,7.50098-4.81543,2.94824-1.13477,6.27832-1.70312,9.99121-1.70312,2.18359,0,4.3999.27344,6.6499.81934,2.24902.54688,4.20312,1.32129,5.86328,2.3252,1.09131.6123,1.83447,1.37598,2.22754,2.29297.39307.91797.51318,1.83496.36035,2.75195-.15332.91699-.52393,1.70312-1.11377,2.3584-.58936.65527-1.32129,1.07129-2.19434,1.24512-.87451.1748-1.85693-.02148-2.94824-.58984-1.31055-.78613-2.68604-1.35352-4.12744-1.70312s-2.90527-.52441-4.38965-.52441c-2.92676,0-5.3833.5791-7.37061,1.73633-1.98779,1.1582-3.4834,2.82812-4.48779,5.01172-1.00488,2.18457-1.50684,4.87109-1.50684,8.05859,0,3.14453.50195,5.83105,1.50684,8.05859,1.00439,2.22754,2.5,3.91992,4.48779,5.07715,1.9873,1.15723,4.44385,1.73633,7.37061,1.73633,1.39746,0,2.82715-.17383,4.29102-.52441,1.46289-.34863,2.87158-.89453,4.22607-1.6377,1.13525-.56738,2.15039-.77539,3.04639-.62207.89453.15332,1.6377.5459,2.22754,1.17871.58936.63379.95996,1.38672,1.11377,2.26074.15234.87402.0542,1.74707-.29492,2.62012-.3501.87402-1.00537,1.61621-1.96533,2.22754-1.6167,1.09277-3.60352,1.94434-5.96191,2.55469-2.3584.61133-4.6958.91797-7.01025.91797Z"></path>
  <path d="m206.83094,67.64215c-1.61621,0-2.84961-.4375-3.70117-1.31055-.85205-.87305-1.27783-2.11816-1.27783-3.73438V25.31891c0-1.65918.42578-2.91504,1.27783-3.7666.85156-.85254,2.08496-1.27832,3.70117-1.27832,1.57275,0,2.78467.42578,3.63623,1.27832.85156.85156,1.27783,2.10742,1.27783,3.7666v15.59277h-.91748c1.00439-2.13965,2.5-3.78906,4.48779-4.94629,1.98682-1.15723,4.24707-1.73633,6.78076-1.73633,2.57666,0,4.69482.49121,6.35498,1.47363,1.65918.9834,2.9043,2.46875,3.73438,4.45508.8291,1.98828,1.24463,4.51074,1.24463,7.56738v14.87207c0,1.61621-.42578,2.86133-1.27734,3.73438s-2.08643,1.31055-3.70166,1.31055c-1.57227,0-2.78418-.4375-3.63623-1.31055-.85156-.87305-1.27734-2.11816-1.27734-3.73438v-14.41309c0-2.22754-.4043-3.83301-1.21191-4.81543-.80908-.9834-2.04248-1.47461-3.70166-1.47461-2.09668,0-3.76709.65527-5.01221,1.96582-1.24463,1.31055-1.8667,3.05762-1.8667,5.24121v13.49609c0,3.36328-1.63818,5.04492-4.91406,5.04492Z"></path>
  <path d="m245.15613,28.98785c-1.83398,0-3.24268-.42578-4.22559-1.27734-.98242-.85156-1.47412-2.06348-1.47412-3.63672,0-1.61523.4917-2.84961,1.47412-3.70117.98291-.85156,2.3916-1.27734,4.22559-1.27734,1.83447,0,3.23193.42578,4.19336,1.27734.95996.85156,1.44092,2.08594,1.44092,3.70117,0,1.57324-.48096,2.78516-1.44092,3.63672-.96143.85156-2.35889,1.27734-4.19336,1.27734Zm0,38.58789c-1.61621,0-2.84961-.46973-3.70117-1.4082-.85205-.93848-1.27783-2.25977-1.27783-3.96387v-22.40625c0-1.74609.42578-3.08887,1.27783-4.02832.85156-.93945,2.08496-1.40918,3.70117-1.40918,1.57275,0,2.78467.46973,3.63623,1.40918s1.27783,2.28223,1.27783,4.02832v22.40625c0,1.7041-.41602,3.02539-1.24512,3.96387-.83008.93848-2.05322,1.4082-3.66895,1.4082Z"></path>
  <path d="m268.67567,67.77301c-3.8877,0-6.79199-1.08105-8.71338-3.24316-1.92236-2.16211-2.88281-5.38281-2.88281-9.66309v-29.54785c0-1.65918.42578-2.91504,1.27783-3.7666.85156-.85254,2.08496-1.27832,3.70117-1.27832,1.57275,0,2.78467.42578,3.63623,1.27832.85156.85156,1.27783,2.10742,1.27783,3.7666v29.1543c0,1.79102.38135,3.1123,1.14648,3.96387.76367.85156,1.77881,1.27734,3.04639,1.27734.34912,0,.67627-.02148.98242-.06543.30518-.04297.63281-.06543.98291-.06543.69824-.08691,1.18945.12012,1.47412.62207.28369.50293.42578,1.49707.42578,2.98145,0,1.30957-.26221,2.30371-.78613,2.98047-.52441.67773-1.33301,1.12402-2.42432,1.34277-.43701.04297-.93945.09863-1.50684.16406-.56787.06543-1.11377.09863-1.6377.09863Z"></path>
  <path d="m290.42664,67.77301c-2.79541,0-5.25244-.67773-7.37012-2.03125-2.11914-1.35352-3.76709-3.29688-4.94629-5.83105-1.1792-2.53223-1.76904-5.52441-1.76904-8.97559,0-3.44922.58984-6.41992,1.76904-8.91016,1.1792-2.48926,2.82715-4.41016,4.94629-5.76465,2.11768-1.35352,4.57471-2.03125,7.37012-2.03125,2.53271,0,4.77148.6123,6.71533,1.83398,1.94336,1.22363,3.26465,2.81738,3.96387,4.7832h-.7207v-15.52734c0-1.65918.41455-2.91504,1.24463-3.7666.82959-.85254,2.05273-1.27832,3.66943-1.27832,1.57227,0,2.79492.42578,3.66895,1.27832.87305.85156,1.30957,2.10742,1.30957,3.7666v37.27832c0,1.61621-.42578,2.86133-1.27734,3.73438s-2.06348,1.31055-3.63574,1.31055c-1.57275,0-2.78467-.4375-3.63623-1.31055-.85205-.87305-1.27783-2.11816-1.27783-3.73438v-4.45508l.7207,2.55469c-.6123,2.14062-1.91113,3.85547-3.89795,5.14355-1.98828,1.28711-4.27002,1.93262-6.84668,1.93262Zm2.94824-7.40332c1.44141,0,2.68652-.34961,3.73438-1.04883,1.04834-.69727,1.87744-1.73535,2.48975-3.11133.61133-1.37598.91699-3.13379.91699-5.27441,0-3.1875-.65479-5.53613-1.96533-7.04297-1.31006-1.50684-3.03613-2.25977-5.17578-2.25977-1.39795,0-2.63184.32715-3.70166.98242-1.07031.65527-1.8999,1.6709-2.48926,3.04688-.58984,1.37598-.88477,3.13379-.88477,5.27344,0,3.18945.65527,5.55859,1.96582,7.1084,1.31006,1.55078,3.01367,2.32617,5.10986,2.32617Z"></path>
  <path d="m10.94617,132.56695c-1.70361,0-3.01367-.45801-3.93115-1.37598-.91699-.91699-1.37598-2.22754-1.37598-3.93066v-35.57422c0-1.7041.45898-3.01367,1.37598-3.93066.91748-.91797,2.22754-1.37598,3.93115-1.37598h12.77539c7.90479,0,14.00879,1.99805,18.31104,5.99414,4.30176,3.99707,6.45361,9.68652,6.45361,17.06641,0,3.71289-.55713,7-1.6709,9.86035-1.11377,2.86133-2.71875,5.27441-4.81543,7.23926-2.09619,1.96582-4.67383,3.46191-7.73047,4.48828-3.05762,1.02637-6.57422,1.53906-10.54785,1.53906h-12.77539Zm4.84766-8.32031h7.33789c2.48975,0,4.65137-.30469,6.48584-.91699,1.83447-.61133,3.36279-1.52832,4.58643-2.75195,1.22217-1.22168,2.13916-2.76172,2.75146-4.61816.61084-1.85645.91699-4.0293.91699-6.51953,0-4.97852-1.23438-8.68066-3.70166-11.10449-2.46777-2.42383-6.14795-3.63574-11.03906-3.63574h-7.33789v29.54688Z"></path>
  <path d="m71.54676,133.28766c-3.7998,0-7.06543-.6875-9.79443-2.06348-2.73047-1.37598-4.82666-3.31836-6.28955-5.83105-1.46387-2.51074-2.19482-5.4707-2.19482-8.87695,0-3.31934.69824-6.23438,2.09668-8.74609,1.39697-2.51172,3.35107-4.47656,5.86328-5.89648,2.51123-1.41895,5.36084-2.12988,8.5498-2.12988,2.31445,0,4.41113.38379,6.28955,1.14746,1.87744.76465,3.49365,1.85645,4.84814,3.27539,1.35303,1.41992,2.37988,3.14453,3.0791,5.17578.69824,2.03027,1.04834,4.29102,1.04834,6.78027,0,.83008-.26221,1.45312-.78613,1.86719-.52441.41602-1.28906.62305-2.29346.62305h-20.57129v-5.11035h16.50977l-1.04834.91699c0-1.79004-.26221-3.28613-.78613-4.4873-.52441-1.20117-1.27783-2.10742-2.26025-2.71973-.98291-.61035-2.19482-.91699-3.63623-.91699-1.61621,0-2.99219.37207-4.12744,1.11426-1.13623.74316-2.00928,1.8125-2.62061,3.20996-.6123,1.39844-.91699,3.0791-.91699,5.04492v.52344c0,3.32031.7749,5.76562,2.32568,7.33789,1.5498,1.57227,3.854,2.3584,6.91162,2.3584,1.04834,0,2.24902-.13086,3.60352-.39258,1.35303-.2627,2.62061-.67676,3.7998-1.24512,1.00439-.47949,1.8999-.64355,2.68604-.49121.78613.15332,1.39746.51367,1.83447,1.08105.43604.56836.68799,1.22363.75342,1.96582.06543.74316-.09814,1.47363-.49121,2.19434s-1.04834,1.32129-1.96582,1.80176c-1.48535.83008-3.15576,1.45215-5.01172,1.86719-1.85693.41406-3.65869.62207-5.40479.62207Z"></path>
  <path d="m103.19031,133.1568c-1.26709,0-2.38086-.33887-3.34082-1.01562-.96143-.67676-1.72607-1.69238-2.29346-3.0459l-9.89258-22.7998c-.48096-1.13477-.65527-2.19434-.52393-3.17773.13086-.98242.59961-1.76855,1.4082-2.3584.80811-.58887,1.93311-.88379,3.37402-.88379,1.17969,0,2.13965.27344,2.88281.81836.74219.54688,1.39746,1.58398,1.96533,3.1123l7.73096,19.6543h-2.09668l8.05859-19.71973c.61084-1.48438,1.2876-2.5,2.03076-3.04688.74219-.54492,1.76904-.81836,3.0791-.81836,1.13525,0,2.0415.29492,2.71924.88379.67627.58984,1.09131,1.36621,1.24463,2.32617.15234.96094-.03271,2.00977-.55664,3.14453l-10.08936,22.86523c-.56836,1.39844-1.32178,2.42383-2.26025,3.0791-.93994.65527-2.08643.98242-3.43994.98242Z"></path>
  <path d="m139.81385,133.28766c-3.7998,0-7.06543-.6875-9.79443-2.06348-2.73047-1.37598-4.82666-3.31836-6.28955-5.83105-1.46387-2.51074-2.19482-5.4707-2.19482-8.87695,0-3.31934.69824-6.23438,2.09668-8.74609,1.39697-2.51172,3.35107-4.47656,5.86328-5.89648,2.51123-1.41895,5.36084-2.12988,8.5498-2.12988,2.31445,0,4.41113.38379,6.28955,1.14746,1.87744.76465,3.49365,1.85645,4.84814,3.27539,1.35303,1.41992,2.37988,3.14453,3.0791,5.17578.69824,2.03027,1.04834,4.29102,1.04834,6.78027,0,.83008-.26221,1.45312-.78613,1.86719-.52441.41602-1.28906.62305-2.29346.62305h-20.57129v-5.11035h16.50977l-1.04834.91699c0-1.79004-.26221-3.28613-.78613-4.4873-.52441-1.20117-1.27783-2.10742-2.26025-2.71973-.98291-.61035-2.19482-.91699-3.63623-.91699-1.61621,0-2.99219.37207-4.12744,1.11426-1.13623.74316-2.00928,1.8125-2.62061,3.20996-.6123,1.39844-.91699,3.0791-.91699,5.04492v.52344c0,3.32031.7749,5.76562,2.32568,7.33789,1.5498,1.57227,3.854,2.3584,6.91162,2.3584,1.04834,0,2.24902-.13086,3.60352-.39258,1.35303-.2627,2.62061-.67676,3.7998-1.24512,1.00439-.47949,1.8999-.64355,2.68604-.49121.78613.15332,1.39746.51367,1.83447,1.08105.43604.56836.68799,1.22363.75342,1.96582.06543.74316-.09814,1.47363-.49121,2.19434s-1.04834,1.32129-1.96582,1.80176c-1.48535.83008-3.15576,1.45215-5.01172,1.86719-1.85693.41406-3.65869.62207-5.40479.62207Z"></path>
  <path d="m170.016,133.28766c-3.8877,0-6.79199-1.08105-8.71338-3.24316-1.92236-2.16113-2.88281-5.38184-2.88281-9.66309v-29.54688c0-1.66016.42578-2.91602,1.27783-3.76758.85156-.85156,2.08496-1.27734,3.70117-1.27734,1.57275,0,2.78467.42578,3.63623,1.27734s1.27783,2.10742,1.27783,3.76758v29.15332c0,1.79199.38135,3.1123,1.14648,3.96387.76367.85156,1.77881,1.27734,3.04639,1.27734.34912,0,.67627-.02148.98242-.06543.30518-.04297.63281-.06543.98291-.06543.69824-.08691,1.18945.12109,1.47412.62305.28369.50195.42578,1.49609.42578,2.98047,0,1.31055-.26221,2.30469-.78613,2.98145-.52441.67773-1.33301,1.12402-2.42432,1.34277-.43701.04297-.93945.09766-1.50684.16406-.56787.06543-1.11377.09766-1.6377.09766Z"></path>
  <path d="m194.71522,133.28766c-3.45068,0-6.45312-.67773-9.0083-2.03027-2.55469-1.35352-4.53174-3.29785-5.92871-5.83105-1.39844-2.5332-2.09668-5.52539-2.09668-8.97559,0-2.57715.39307-4.8916,1.1792-6.94434s1.93262-3.81055,3.43945-5.27441c1.50684-1.46289,3.30859-2.57617,5.40527-3.34082,2.09619-.76367,4.43213-1.14746,7.00977-1.14746,3.44971,0,6.45361.67773,9.0083,2.03125,2.55518,1.35449,4.54199,3.27637,5.96191,5.76562,1.41895,2.48926,2.12939,5.45996,2.12939,8.91016,0,2.62012-.4043,4.95703-1.21191,7.00977-.80908,2.05371-1.95557,3.82227-3.43945,5.30664-1.48535,1.48535-3.28711,2.61035-5.40527,3.37402-2.11914.76367-4.46631,1.14648-7.04297,1.14648Zm0-7.40332c1.44141,0,2.68652-.34863,3.73438-1.04785,1.04834-.69824,1.87744-1.73633,2.48975-3.1123.61133-1.37598.91699-3.13281.91699-5.27344,0-3.1875-.65479-5.53613-1.96533-7.04297-1.31006-1.50684-3.03613-2.26074-5.17578-2.26074-1.39795,0-2.63184.32812-3.70166.9834-1.07031.65527-1.8999,1.66992-2.48926,3.0459-.58984,1.37598-.88477,3.13477-.88477,5.27441,0,3.18848.65527,5.55859,1.96582,7.1084,1.31006,1.55078,3.01367,2.3252,5.10986,2.3252Z"></path>
  <path d="m222.16492,144.94977c-1.61621,0-2.84961-.42578-3.70117-1.27734-.85205-.85254-1.27783-2.1084-1.27783-3.76758v-35.05078c0-1.61523.42578-2.84961,1.27783-3.70117.85156-.85156,2.04102-1.27734,3.57031-1.27734,1.61523,0,2.83887.42578,3.66895,1.27734.8291.85156,1.24463,2.08594,1.24463,3.70117v4.45508l-.7207-2.55469c.65527-2.09668,1.97559-3.78906,3.96387-5.07715,1.98682-1.28809,4.26855-1.93359,6.84619-1.93359,2.79443,0,5.25146.67773,7.37061,2.03125,2.11768,1.35449,3.76709,3.27637,4.94629,5.76562s1.76904,5.45996,1.76904,8.91016-.58984,6.44238-1.76904,8.97559-2.81738,4.47754-4.91357,5.83105c-2.09668,1.35254-4.56445,2.03027-7.40332,2.03027-2.53369,0-4.78271-.62207-6.74805-1.86719-1.96533-1.24414-3.29834-2.87109-3.99658-4.88086h.78662v13.36523c0,1.65918-.42627,2.91504-1.27783,3.76758-.85156.85156-2.06348,1.27734-3.63623,1.27734Zm11.92383-19.06543c1.39746,0,2.63086-.34863,3.70166-1.04785,1.06982-.69824,1.8999-1.73633,2.48975-3.1123.58936-1.37598.88428-3.13281.88428-5.27344,0-3.1875-.65527-5.53613-1.96533-7.04297-1.31055-1.50684-3.01367-2.26074-5.11035-2.26074-1.39844,0-2.63184.32812-3.70166.9834-1.0708.65527-1.91113,1.66992-2.52197,3.0459-.6123,1.37598-.91748,3.13477-.91748,5.27441,0,3.18848.65527,5.55859,1.96533,7.1084,1.31055,1.55078,3.03516,2.3252,5.17578,2.3252Z"></path>
  <path d="m261.60438,133.1568c-1.6167,0-2.8501-.4375-3.70166-1.31055s-1.27783-2.11816-1.27783-3.73438v-23.25781c0-1.61523.42627-2.84961,1.27783-3.70117s2.04102-1.27734,3.57031-1.27734c1.57275,0,2.77344.42578,3.60352,1.27734.8291.85156,1.24463,2.08594,1.24463,3.70117v4.19336l-.7207-2.62109c.87354-2.00781,2.22754-3.62402,4.06201-4.84766,1.83447-1.22266,3.99658-1.83496,6.48633-1.83496,2.48926,0,4.56348.58984,6.22363,1.76953,1.65967,1.17871,2.83887,2.99219,3.53809,5.4375h-.91748c.96045-2.22754,2.43457-3.98535,4.42236-5.27344,1.98682-1.28809,4.26855-1.93359,6.84619-1.93359,2.48975,0,4.53076.49219,6.12549,1.47461,1.59424.98242,2.78516,2.46777,3.57129,4.45508.78613,1.98828,1.17871,4.50977,1.17871,7.56641v14.87207c0,1.61621-.42578,2.86133-1.27734,3.73438s-2.06396,1.31055-3.63623,1.31055c-1.61621,0-2.8501-.4375-3.70166-1.31055s-1.27734-2.11816-1.27734-3.73438v-14.54395c0-2.13965-.33887-3.70215-1.01562-4.68457-.67773-.98242-1.82422-1.47363-3.43945-1.47363-1.87842,0-3.34131.65527-4.38965,1.96484-1.04834,1.31055-1.57227,3.16797-1.57227,5.56934v13.16797c0,1.61621-.42578,2.86133-1.27734,3.73438-.85205.87305-2.06396,1.31055-3.63623,1.31055s-2.7959-.4375-3.66895-1.31055c-.87402-.87305-1.31006-2.11816-1.31006-3.73438v-14.54395c0-2.13965-.33887-3.70215-1.01562-4.68457-.67773-.98242-1.82422-1.47363-3.43945-1.47363-1.87842,0-3.34131.65527-4.38965,1.96484-1.04834,1.31055-1.57227,3.16797-1.57227,5.56934v13.16797c0,3.36426-1.63818,5.04492-4.91357,5.04492Z"></path>
  <path d="m330.78846,133.28766c-3.7998,0-7.06543-.6875-9.79492-2.06348-2.73047-1.37598-4.82617-3.31836-6.28906-5.83105-1.46387-2.51074-2.19531-5.4707-2.19531-8.87695,0-3.31934.69824-6.23438,2.09668-8.74609,1.39746-2.51172,3.35156-4.47656,5.86328-5.89648,2.51172-1.41895,5.36133-2.12988,8.5498-2.12988,2.31445,0,4.41113.38379,6.29004,1.14746,1.87695.76465,3.49316,1.85645,4.84766,3.27539,1.35352,1.41992,2.37988,3.14453,3.0791,5.17578.69824,2.03027,1.04883,4.29102,1.04883,6.78027,0,.83008-.2627,1.45312-.78613,1.86719-.52441.41602-1.28906.62305-2.29395.62305h-20.57129v-5.11035h16.50977l-1.04785.91699c0-1.79004-.2627-3.28613-.78613-4.4873-.52441-1.20117-1.27832-2.10742-2.26074-2.71973-.98242-.61035-2.19434-.91699-3.63574-.91699-1.61621,0-2.99219.37207-4.12793,1.11426-1.13574.74316-2.00879,1.8125-2.62012,3.20996-.6123,1.39844-.91699,3.0791-.91699,5.04492v.52344c0,3.32031.77441,5.76562,2.3252,7.33789,1.5498,1.57227,3.85449,2.3584,6.91211,2.3584,1.04785,0,2.24902-.13086,3.60352-.39258,1.35254-.2627,2.62012-.67676,3.7998-1.24512,1.00391-.47949,1.89941-.64355,2.68555-.49121.78613.15332,1.39746.51367,1.83496,1.08105.43555.56836.6875,1.22363.75293,1.96582.06543.74316-.09766,1.47363-.49121,2.19434-.39258.7207-1.04785,1.32129-1.96582,1.80176-1.48535.83008-3.15527,1.45215-5.01172,1.86719-1.85645.41406-3.6582.62207-5.4043.62207Z"></path>
  <path d="m354.37244,133.1568c-1.61621,0-2.84961-.4375-3.70117-1.31055s-1.27734-2.11816-1.27734-3.73438v-23.25781c0-1.61523.42578-2.84961,1.27734-3.70117s2.04102-1.27734,3.57031-1.27734c1.57227,0,2.77344.42578,3.60352,1.27734.8291.85156,1.24512,2.08594,1.24512,3.70117v3.73438l-.7207-2.16211c1.00391-2.13867,2.5-3.78809,4.4873-4.94629,1.9873-1.15625,4.24707-1.73633,6.78125-1.73633,2.57617,0,4.69434.49219,6.35449,1.47461,1.65918.98242,2.9043,2.46777,3.73438,4.45508.8291,1.98828,1.24512,4.50977,1.24512,7.56641v14.87207c0,1.61621-.42578,2.86133-1.27734,3.73438s-2.08691,1.31055-3.70215,1.31055c-1.57227,0-2.78418-.4375-3.63574-1.31055s-1.27734-2.11816-1.27734-3.73438v-14.41309c0-2.22754-.4043-3.83301-1.21191-4.81543-.80957-.98242-2.04297-1.47363-3.70215-1.47363-2.09668,0-3.7666.65527-5.01172,1.96484-1.24512,1.31055-1.86719,3.05762-1.86719,5.24121v13.49609c0,3.36426-1.6377,5.04492-4.91406,5.04492Z"></path>
  <path d="m403.50819,133.28766c-3.01367,0-5.53613-.50195-7.56641-1.50684-2.03125-1.00391-3.53809-2.4668-4.52051-4.38965-.9834-1.9209-1.47461-4.34473-1.47461-7.27148v-12.31738h-2.75098c-1.22363,0-2.17383-.32715-2.85059-.98242s-1.01562-1.5498-1.01562-2.68652c0-1.22168.33887-2.15039,1.01562-2.78418.67676-.63281,1.62695-.9502,2.85059-.9502h2.75098v-4.97852c0-1.65918.43652-2.91602,1.31055-3.76758.87305-.85156,2.09668-1.27734,3.66895-1.27734,1.61523,0,2.83887.42578,3.66895,1.27734.8291.85156,1.24414,2.1084,1.24414,3.76758v4.97852h6.22461c1.22168,0,2.16211.31738,2.81738.9502.6543.63379.98242,1.5625.98242,2.78418,0,1.13672-.32812,2.03125-.98242,2.68652-.65527.65527-1.5957.98242-2.81738.98242h-6.22461v11.92383c0,1.83496.42676,3.20996,1.27832,4.12793.85156.91699,2.21582,1.375,4.09473,1.375.65527,0,1.26562-.06543,1.83398-.19629.56738-.13086,1.09082-.21777,1.57227-.26172.61133-.04297,1.11426.14258,1.50684.55664.39355.41602.58984,1.32129.58984,2.71875,0,1.04883-.1748,1.96582-.52441,2.75195s-.96094,1.35449-1.83398,1.70312c-.56836.21777-1.34277.40332-2.32617.55664-.98242.15332-1.82422.22949-2.52246.22949Z"></path>
  <path d="m9.76649,201.29156c-1.00488,0-1.79102-.28418-2.3584-.85156-.56787-.56641-.85156-1.37598-.85156-2.42383v-40.09473c0-1.04883.28369-1.85645.85156-2.4248.56738-.56641,1.37598-.85156,2.42432-.85156h23.51953c.87354,0,1.52832.20801,1.96582.62305.43604.41504.65479,1.01465.65479,1.80078,0,.83105-.21875,1.46387-.65479,1.90039-.4375.4375-1.09229.65527-1.96582.65527H12.6493v15.46094h19.39258c.8291,0,1.46289.21973,1.8999.65527.43604.4375.65527,1.02734.65527,1.76953,0,.83008-.21924,1.46387-.65527,1.89941-.43701.4375-1.0708.65527-1.8999.65527H12.6493v17.95117c0,2.18457-.96143,3.27539-2.88281,3.27539Z" fill="#339669"></path>
  <path d="m53.53065,201.4234c-3.14453,0-5.875-.67676-8.18945-2.03125-2.31543-1.35352-4.10596-3.27637-5.37207-5.76562-1.26758-2.48926-1.8999-5.41504-1.8999-8.7793,0-2.53223.36035-4.81445,1.08105-6.8457.72021-2.03125,1.75732-3.76758,3.11182-5.20898,1.35303-1.44141,2.98096-2.54297,4.88086-3.30859,1.8999-.76367,4.0293-1.14648,6.3877-1.14648,3.14453,0,5.87354.67773,8.18945,2.03125,2.31445,1.35449,4.10498,3.26562,5.37207,5.73242,1.26611,2.46875,1.8999,5.38379,1.8999,8.74609,0,2.53418-.36035,4.82715-1.08105,6.87988s-1.75879,3.7998-3.11182,5.24121c-1.35449,1.44141-2.98096,2.54492-4.88086,3.30859-1.8999.7627-4.0293,1.14648-6.3877,1.14648Zm0-4.71777c1.92139,0,3.5918-.45801,5.01172-1.37598,1.41895-.91699,2.51123-2.24902,3.27588-3.99609.76367-1.74609,1.14648-3.9082,1.14648-6.48633,0-3.84277-.85156-6.76953-2.55518-8.77832-1.70312-2.00879-3.99609-3.01367-6.87891-3.01367-1.87842,0-3.52783.44824-4.94629,1.34277-1.41992.89551-2.52246,2.21777-3.30859,3.96387-.78613,1.74707-1.1792,3.90918-1.1792,6.48535,0,3.84473.86182,6.78125,2.58789,8.8125,1.72461,2.03027,4.00635,3.0459,6.84619,3.0459Z" fill="#339669"></path>
  <path d="m87.40174,201.4234c-2.57764,0-4.72803-.48145-6.45312-1.44141-1.72607-.96094-3.00342-2.38086-3.83252-4.25879-.83057-1.87793-1.24512-4.23633-1.24512-7.0752v-17.16504c0-1.00488.25098-1.75781.75342-2.26074.50195-.50195,1.23389-.75293,2.19482-.75293.96045,0,1.70361.25098,2.22754.75293.52441.50293.78613,1.25586.78613,2.26074v17.16504c0,2.70801.5459,4.70605,1.63818,5.99414,1.09131,1.28906,2.81689,1.93262,5.17529,1.93262,2.62061,0,4.75-.87305,6.3877-2.62012,1.63818-1.74707,2.45703-4.0625,2.45703-6.94531v-15.52637c0-1.00488.25098-1.75781.75342-2.26074.50146-.50195,1.2334-.75293,2.19482-.75293.95996,0,1.70312.25098,2.22754.75293.52393.50293.78613,1.25586.78613,2.26074v26.72949c0,2.05371-.96143,3.0791-2.88281,3.0791-.96094,0-1.69287-.26172-2.19482-.78613-.50244-.52344-.75342-1.28711-.75342-2.29297v-5.69922l.85205,1.11328c-.87451,2.53418-2.28271,4.4668-4.22607,5.79785-1.94385,1.33301-4.22559,1.99902-6.84619,1.99902Z" fill="#339669"></path>
  <path d="m115.31043,201.29156c-.91748,0-1.63818-.26172-2.16211-.78613-.52441-.52344-.78613-1.28711-.78613-2.29297v-26.72949c0-1.00488.26172-1.75781.78613-2.26074.52393-.50195,1.24463-.75293,2.16211-.75293.91699,0,1.62646.25098,2.12891.75293.50195.50293.75342,1.25586.75342,2.26074v5.37207l-.7207-.9834c.91748-2.48926,2.41309-4.36621,4.48779-5.63379,2.07422-1.2666,4.44385-1.90039,7.1084-1.90039,2.57666,0,4.69482.45898,6.35498,1.37598,1.65967.91699,2.9043,2.31543,3.73438,4.19336.8291,1.87793,1.24512,4.25879,1.24512,7.14062v17.16504c0,1.00586-.25195,1.76953-.75391,2.29297-.50244.52441-1.23438.78613-2.19434.78613-.96143,0-1.70361-.26172-2.22754-.78613-.52441-.52344-.78613-1.28711-.78613-2.29297v-16.83691c0-2.83887-.54688-4.91406-1.63818-6.22363-1.09229-1.31055-2.83936-1.96582-5.24121-1.96582-2.79541,0-5.03418.86328-6.71533,2.58789-1.68164,1.72559-2.52197,4.05176-2.52197,6.97754v15.46094c0,2.05371-1.00537,3.0791-3.01367,3.0791Z" fill="#339669"></path>
  <path d="m161.36658,201.4234c-2.79541,0-5.25244-.66602-7.37012-1.99902-2.11914-1.33105-3.76709-3.25293-4.94678-5.76465-1.1792-2.51172-1.76855-5.44824-1.76855-8.8125,0-3.40625.57812-6.34277,1.73584-8.81152,1.15674-2.4668,2.79492-4.36719,4.91357-5.69922,2.11816-1.33203,4.59668-1.99902,7.43604-1.99902,2.83887,0,5.28418.71094,7.33789,2.12988,2.05225,1.41992,3.42822,3.30859,4.12744,5.66699h-.7207v-18.93359c0-1.00488.25098-1.75781.75342-2.26074.50146-.50195,1.2334-.75293,2.19482-.75293.95996,0,1.70312.25098,2.22754.75293.52393.50293.78613,1.25586.78613,2.26074v41.01172c0,1.00586-.26221,1.76953-.78613,2.29297-.52441.52441-1.26758.78613-2.22754.78613-.91748,0-1.63818-.26172-2.16211-.78613-.52393-.52344-.78613-1.28711-.78613-2.29297v-5.96191l.7207,1.17969c-.65527,2.44629-2.021,4.38965-4.09473,5.83105-2.0752,1.44141-4.53174,2.16211-7.37061,2.16211Zm1.37598-4.71777c1.92139,0,3.5918-.45801,5.01172-1.37598,1.41895-.91699,2.51123-2.24902,3.27588-3.99609.76367-1.74609,1.14648-3.9082,1.14648-6.48633,0-3.84277-.85156-6.76953-2.55518-8.77832-1.70312-2.00879-3.99609-3.01367-6.87891-3.01367-1.87842,0-3.52783.44824-4.94629,1.34277-1.41992.89551-2.52246,2.21777-3.30859,3.96387-.78613,1.74707-1.1792,3.90918-1.1792,6.48535,0,3.84473.86182,6.78125,2.58789,8.8125,1.72461,2.03027,4.00635,3.0459,6.84619,3.0459Z" fill="#339669"></path>
  <path d="m197.13709,201.4234c-2.18457,0-4.16016-.4375-5.9292-1.31055s-3.14453-2.05273-4.12744-3.53809c-.98291-1.48438-1.47412-3.14453-1.47412-4.97949,0-2.3584.58984-4.21387,1.76904-5.56836,1.1792-1.35352,3.16602-2.32617,5.96191-2.91504,2.79443-.58984,6.55127-.88477,11.26855-.88477h3.0791v3.7998h-2.94824c-3.36377,0-6.01709.15332-7.95996.45898-1.94385.30566-3.30859.84082-4.09473,1.60449-.78613.76465-1.1792,1.82422-1.1792,3.17773,0,1.70312.59961,3.10156,1.80176,4.19336,1.20068,1.0918,2.84961,1.6377,4.94629,1.6377,1.65918,0,3.12207-.40332,4.38916-1.21191,1.2666-.80762,2.27051-1.90039,3.01416-3.27637.7417-1.37598,1.11328-2.95801,1.11328-4.75v-7.53418c0-2.57617-.52393-4.44336-1.57227-5.60156-1.04785-1.15625-2.81689-1.73535-5.30664-1.73535-1.44141,0-2.92676.19629-4.45508.58887-1.5293.39355-3.12305,1.00586-4.78223,1.83496-.65527.30566-1.22363.4043-1.70361.29492-.48096-.1084-.86279-.37109-1.14648-.78613-.28467-.41504-.43701-.87305-.4585-1.37598-.02246-.50195.08691-.99316.32764-1.47461.23926-.47949.66504-.8291,1.27734-1.04785,1.92139-.95996,3.83252-1.64844,5.73242-2.06348s3.6792-.62305,5.33984-.62305c2.83838,0,5.17529.44922,7.00977,1.34375,1.83447.89551,3.21045,2.27148,4.12744,4.12695.91748,1.85742,1.37598,4.22559,1.37598,7.1084v17.2959c0,1.00586-.24072,1.76953-.7207,2.29297-.48096.52441-1.1792.78613-2.09668.78613-.87402,0-1.56201-.26172-2.06348-.78613-.50293-.52344-.75342-1.28711-.75342-2.29297v-4.65137h.58936c-.3501,1.61621-1.00488,3.01367-1.96533,4.19336-.96094,1.17871-2.15186,2.08594-3.57031,2.71875-1.41992.63281-3.0249.9502-4.81543.9502Z" fill="#339669"></path>
  <path d="m234.47986,201.4234c-2.57764,0-4.72852-.45898-6.45312-1.37598-1.72607-.91797-3.01367-2.24902-3.86523-3.99707-.85205-1.74609-1.27783-3.88672-1.27783-6.41992v-16.11719h-4.19287c-.78613,0-1.39844-.20605-1.83447-.62207-.43604-.41504-.65527-.97168-.65527-1.6709,0-.74219.21924-1.30957.65527-1.70312s1.04834-.58984,1.83447-.58984h4.19287v-7.14062c0-1.00488.26221-1.75781.78613-2.26074.52441-.50098,1.2666-.75293,2.22754-.75293.96045,0,1.69238.25195,2.19482.75293.50146.50293.75342,1.25586.75342,2.26074v7.14062h7.92725c.8291,0,1.46289.19629,1.8999.58984.43604.39355.65527.96094.65527,1.70312,0,.69922-.21924,1.25586-.65527,1.6709-.43701.41602-1.0708.62207-1.8999.62207h-7.92725v15.59277c0,2.40234.50146,4.21582,1.50684,5.4375,1.00439,1.22363,2.66357,1.83496,4.979,1.83496.8291,0,1.52832-.07617,2.09668-.22949.56689-.15234,1.06982-.22949,1.50684-.22949.39307-.04297.73096.08789,1.01562.39355.2832.30566.42578.87402.42578,1.70312,0,.6123-.09863,1.16895-.29492,1.6709-.19678.50195-.57959.84082-1.14648,1.01562-.52393.17383-1.22314.33691-2.09668.49121-.87402.15234-1.66016.22949-2.3584.22949Z" fill="#339669"></path>
  <path d="m247.51649,161.52399c-1.17969,0-2.10791-.31641-2.78467-.94922-.67773-.63281-1.01562-1.47461-1.01562-2.52246,0-1.13574.33789-1.99805,1.01562-2.58789.67676-.58984,1.60498-.88477,2.78467-.88477,1.26611,0,2.21582.29492,2.84961.88477.63281.58984.9502,1.45215.9502,2.58789,0,1.04785-.31738,1.88965-.9502,2.52246-.63379.63281-1.5835.94922-2.84961.94922Zm0,39.63672c-.91748,0-1.63818-.28418-2.16211-.85156-.52441-.56738-.78613-1.35352-.78613-2.3584v-26.14062c0-1.04785.26172-1.84473.78613-2.3916.52393-.54492,1.24463-.81836,2.16211-.81836.95996,0,1.70312.27344,2.22754.81836.52393.54688.78613,1.34375.78613,2.3916v26.14062c0,1.00488-.25195,1.79102-.75342,2.3584-.50293.56738-1.25635.85156-2.26025.85156Z" fill="#339669"></path>
  <path d="m273.00135,201.4234c-3.14453,0-5.875-.67676-8.18945-2.03125-2.31543-1.35352-4.10596-3.27637-5.37207-5.76562-1.26758-2.48926-1.8999-5.41504-1.8999-8.7793,0-2.53223.36035-4.81445,1.08105-6.8457.72021-2.03125,1.75732-3.76758,3.11182-5.20898,1.35303-1.44141,2.98096-2.54297,4.88086-3.30859,1.8999-.76367,4.0293-1.14648,6.3877-1.14648,3.14453,0,5.87354.67773,8.18945,2.03125,2.31445,1.35449,4.10498,3.26562,5.37207,5.73242,1.26611,2.46875,1.8999,5.38379,1.8999,8.74609,0,2.53418-.36035,4.82715-1.08105,6.87988s-1.75879,3.7998-3.11182,5.24121c-1.35449,1.44141-2.98096,2.54492-4.88086,3.30859-1.8999.7627-4.0293,1.14648-6.3877,1.14648Zm0-4.71777c1.92139,0,3.5918-.45801,5.01172-1.37598,1.41895-.91699,2.51123-2.24902,3.27588-3.99609.76367-1.74609,1.14648-3.9082,1.14648-6.48633,0-3.84277-.85156-6.76953-2.55518-8.77832-1.70312-2.00879-3.99609-3.01367-6.87891-3.01367-1.87842,0-3.52783.44824-4.94629,1.34277-1.41992.89551-2.52246,2.21777-3.30859,3.96387-.78613,1.74707-1.1792,3.90918-1.1792,6.48535,0,3.84473.86182,6.78125,2.58789,8.8125,1.72461,2.03027,4.00635,3.0459,6.84619,3.0459Z" fill="#339669"></path>
  <path d="m298.42127,201.29156c-.91748,0-1.63818-.26172-2.16211-.78613-.52441-.52344-.78613-1.28711-.78613-2.29297v-26.72949c0-1.00488.26172-1.75781.78613-2.26074.52393-.50195,1.24463-.75293,2.16211-.75293.91699,0,1.62646.25098,2.12891.75293.50195.50293.75342,1.25586.75342,2.26074v5.37207l-.7207-.9834c.91748-2.48926,2.41309-4.36621,4.48779-5.63379,2.07422-1.2666,4.44434-1.90039,7.1084-1.90039,2.57715,0,4.69531.45898,6.35547,1.37598,1.65918.91699,2.9043,2.31543,3.73438,4.19336.8291,1.87793,1.24512,4.25879,1.24512,7.14062v17.16504c0,1.00586-.25195,1.76953-.75391,2.29297-.50293.52441-1.23438.78613-2.19434.78613-.96191,0-1.7041-.26172-2.22754-.78613-.52441-.52344-.78613-1.28711-.78613-2.29297v-16.83691c0-2.83887-.54688-4.91406-1.63867-6.22363-1.0918-1.31055-2.83887-1.96582-5.24121-1.96582-2.79492,0-5.03418.86328-6.71533,2.58789-1.68164,1.72559-2.52197,4.05176-2.52197,6.97754v15.46094c0,2.05371-1.00537,3.0791-3.01367,3.0791Z" fill="#339669"></path>
  <path d="m548.48035,52.74103c-2.28005-6.73518-1.87301-14.21487.54925-20.86647.73692-2.12896,1.91103-4.07967,2.72606-6.18226,2.95819-7.73308,4.28861-17.13804.21182-24.75736-.32414-.46826.36408-1.05105.76937-.63851,6.71664,6.96117,6.40532,18.42156,3.43918,27.06296-1.6107,4.06739-3.52655,7.96747-4.48155,12.28556-1.05098,4.14245-1.73372,8.46988-2.2256,12.94513-.01024.53368-.82212.66811-.98853.15094h0Z"></path>
  <path d="m523.1822,22.19882c1.74854-7.28162,11.31213-9.79654,16.69537-4.65493,5.0466,4.63821,6.0071,12.31264,3.41569,18.39847-1.63712,3.90537-4.07597,7.2042-7.20481,9.89321-.48706.41861-1.22125.3631-1.63989-.12398-.38828-.4499-.36134-1.09957.00831-1.53171,2.18066-2.92423,4.06145-6.23216,5.13573-9.57561,2.12321-5.71879.05799-14.74765-6.51922-15.89765-2.95209-.46112-6.33075,1.12749-7.98871,4.19928-.53591,1.05625-2.18539.42685-1.90247-.70709h0Z"></path>
  <path d="m497.55695,14.98448c4.01737,1.69052,6.9944,4.51409,10.05518,7.42037,2.6077,2.46148,6.21168,6.13479,8.7629,8.72081,1.16765,2.57291-5.75056-1.58815-6.308-1.96313-1.80061-1.14369-3.49848-2.41149-5.11787-3.75824-1.6153-1.35225-3.20117-2.73616-4.59149-4.31969-.51597-.52444-5.26173-6.49005-2.80072-6.10013h0Z"></path>
  <path d="m484.11692,13.39236c4.4047,3.22493,7.85618,7.10526,12.19596,10.37361,1.41159,1.17105,2.89183,2.21595,4.29314,3.44219.22898.18174.26322.52184.06763.74145-.12951.14684-.32531.20126-.50335.15865-1.86135-.42556-3.65802-1.07877-5.37857-1.90734-5.01769-2.61818-10.44461-6.37013-11.56222-12.34713-.07999-.48273.53905-.79497.88741-.46143h0Z"></path>
  <path d="m432.47718,5.92004c.00501,7.65989.20953,15.90392,5.64937,21.75505,1.66062,1.83112,3.39073,3.57666,4.78865,6.40368.20958.37914-.10945.87442-.54012.84159-3.20381-.15514-5.81407-1.85369-7.78267-4.1485-6.1991-6.72872-6.1903-16.94479-3.09966-25.02676.17689-.52092,1.00219-.37562.98442.17495h0Z"></path>
  <path d="m553.71052,200.13657c-11.51411,6.93522-47.866-10.06221-60.14583-15.29605-7.08685-3.13087-14.01694-6.41252-21.20821-9.17176-4.61366-1.71425-9.15543-3.66766-14.13093-3.79155-4.31193-.23885-10.72961.70401-15.10962,1.12277-2.60237.22769-5.27403.42975-7.98652.10379-.55026-.06613-.94272-.5658-.87659-1.11606.05887-.49285.46699-.8589.94513-.88275,7.73446-.73211,15.17671-3.62253,23.09545-3.62425,2.74961-.061,5.59925.40248,8.25407,1.15968,10.15353,2.83122,19.43296,7.67462,28.9274,11.96781,9.37408,4.28854,18.78491,8.46173,28.39679,11.95395,7.15007,2.51933,14.43424,4.88561,21.96386,5.46134,2.48145.14585,4.83477.21183,7.33253.20696.99227-.04369,1.42713,1.41852.54248,1.90613h0Z"></path>
  <path d="m592.49665,108.96142c11.08409,13.63259,6.03988,37.07129,1.84165,52.63607-1.6478,5.762-3.5015,11.35413-5.79551,17.02106,0,0-.38251.71228-.38251.71228-.78992,1.47095-2.62268,2.02304-4.09363,1.23312-.74052-.38463-.98956-.93105-1.54997-1.5355-4.70856-4.93331-10.66509-8.55274-16.85929-11.39684-2.22125-1.03182-4.52224-1.87684-6.8322-2.71041-.54401-.17232-.84339-.76735-.64178-1.30482.17278-.46667.65704-.72744,1.13006-.63467,1.23602.24121,2.48352.45853,3.72253.72391,8.86821,2.02989,17.75224,5.29354,24.87288,11.15078-.00007.00013-5.57423.93925-5.57423.93925,2.42222-5.07473,4.61138-10.51369,6.5155-15.93011,3.69404-10.77757,6.73901-22.15016,6.42581-33.57433-.2073-5.60966-1.44717-11.29597-4.77017-15.72154-.97979-1.27485.90808-2.85791,1.99084-1.60825h0Z"></path>
  <path d="m477.13282,139.55737c3.89543-5.21506,7.54149-10.63004,9.80426-16.71437,2.60974-8.33165,5.89535-17.25831,12.98001-22.92704.86735-.75072,2.14956.38526,1.48796,1.33378-2.17652,3.20295-4.10365,6.30045-5.49543,9.70704-1.40018,3.40659-2.55634,7.01056-3.69977,10.65146-1.12995,3.87701-2.97839,7.62051-5.34687,10.86967-2.36915,3.25124-5.09016,6.17805-8.37243,8.54805-.45529.32065-1.08429.21158-1.405-.24365-.26893-.3814-.23426-.88218.04727-1.22495h0Z"></path>
  <path d="m444.97974,38.166c4.51558,2.46996,5.45851,7.84956,5.89282,12.4129.33618,4.00563,1.81095,8.04799,3.72153,11.82558,5.77179,10.81756,15.12561,21.6719,26.68586,26.22722,8.13165,2.9229,16.02817-.61471,23.14316-4.88071,3.76073-2.24422,7.51201-4.6523,11.39592-6.88725.24115-.13943.54962-.05701.68903.18408.11664.20166.07684.45145-.0799.60904-3.17157,3.17184-6.47803,6.17648-10.0412,8.97379-7.15596,5.88675-17.45902,10.22318-26.74958,6.61132-12.71215-4.97109-23.10757-16.88379-29.11178-28.82157-2.00302-4.17104-3.61139-8.65847-3.94638-13.54592-.12006-3.09269.36268-6.31689-.75425-9.22596-.36013-.88085-1.02358-1.80546-1.59505-2.82087-.26875-.45099.32523-.998.74982-.66165h0Z"></path>
  <path d="m443.23945,150.72461c-6.59235,3.01713-13.51187,5.58268-17.8859,11.66769-.66806.95877-2.22928.25093-1.95657-.87542,1.49015-6.25861,7.4015-10.6806,13.36351-12.30161,1.99809-.51438,4.05174-.7898,6.11277-.60248.61026.05545,1.06.59512,1.00455,1.20538-.0373.40859-.29081.74481-.63837.90643h0Z"></path>
  <path d="m426.09797,167.79388c3.97667-5.45975,11.2683-8.92303,17.98144-7.35073.64872.1642,1.04157.82299.87757,1.47161-.11324.45104-.45992.76365-.87751.8822-2.90628.9025-5.60819,1.5899-8.39146,2.70099-2.68358,1.05508-5.41124,2.51179-7.9029,3.93703-1.08428.75209-2.42413-.55224-1.68714-1.6411h0Z"></path>
  <path d="m424.2299,149.28055c3.64643-9.38053,15.02881-13.08667,24.31951-12.96773,1.56013.01732,1.86854,2.25051.38306,2.69262-1.88567.53815-4.55449,1.17858-6.44415,1.77666-5.01038,1.60087-9.8728,3.80454-13.72074,7.40969-.79183.70472-1.56767,1.61567-2.21292,2.38387-.92772,1.12713-2.79605.07207-2.32477-1.29511h0Z"></path>
  <path d="m460.48594,56.09912c-.4189-3.74958-2.87702-6.09536-5.82805-8.01217-.82718-.5561-2.46588-1.54264-3.33932-2.02683-.4966-.26599-.45103-1.04742.0648-1.25877,3.76569-1.45455,8.35721,1.67293,10.55126,4.60189,1.46736,2.13285,2.19787,5.73422-.3838,7.45521-.60688.32847-1.04435-.15634-1.06488-.75933h0Z"></path>
  <path d="m460.33137,54.49802c-3.31288,2.19541-8.38084,3.18364-10.53257-1.02285-.42914-.745.49842-1.61205,1.20946-1.15634.87753.50712,1.9669.92357,2.96001.80881,1.40937-.29106,3.00557-.89826,4.27531-1.64087.31887-.18962.70699-.41551.89745-.62623.68073-.75317,1.84311-.81195,2.59631-.13123.85972.75904.78712,2.16939-.13863,2.84146.00002,0-1.26735.92724-1.26735.92724h0Z"></path>
  <path d="m441.81049,21.71863c2.67394,1.21597,4.07769,3.24644,5.7415,5.40427,1.58571,2.10513,3.11737,4.08412,4.60173,6.32847.29294.39367-.13323.96769-.59139.80641-2.69818-.86476-5.0102-2.59562-6.94801-4.59933-1.97076-2.09115-3.71906-4.31549-3.66607-7.43332.00092-.4275.48988-.7106.86225-.5065h0Z"></path>
  <path d="m420.49048,182.29043c2.7475,1.03429,5.37152,2.42457,7.90056,3.89695,3.28222,1.73098,6.45074,3.11207,10.06957,4.25534.55853.08963.66056.90954.13441,1.11979-4.07999,1.62124-8.63812.42603-12.31668-1.616-1.33229-.63941-8.92684-6.13272-6.72154-7.60641.29489-.18635.63664-.18054.93368-.04967h0Z"></path>
  <path d="m428.50803,176.12906c2.62176,1.79591,5.4125,3.56659,8.18769,5.11417,1.32726.74197,6.47161,4.51381,4.13695,6.0809-.28991.16601-.61816.20348-.91891.13027-3.33218-.88696-6.21977-2.89769-8.92929-4.93037-1.05156-.94631-5.99073-5.301-3.79738-6.49291.4345-.24906.94635-.18457,1.32094.09793h0Z"></path>
  <path d="m409.47819,170.09549c-1.18648,5.12483-2.08481,10.13508-2.48734,15.33739-.21172,4.89586,1.25427,10.04096,4.08863,14.02523.54579.63497.45877,1.61559-.22828,2.11095-.57219.41782-1.35127.34784-1.84145-.13177-1.15591-1.12897-1.97586-2.24649-2.76996-3.50235-3.93084-6.22007-4.28212-14.09628-2.24309-21.04075.79451-2.72414,1.97838-5.39565,3.77-7.64632.33597-.42209.95053-.49188,1.37262-.15588.30962.24657.42986.64294.33887,1.00351h0Z"></path>
  <path d="m414.25584,189.35828c5.21593,1.86532,9.8908,4.67008,15.59432,4.81832.89217.07572,1.08541,1.39227.26945,1.72807-4.38368,2.16383-9.98668,1.23227-13.945-1.53683-.92982-.62754-4.60737-3.98799-2.69063-5.02518.26032-.11156.52569-.0789.77187.01561h0Z"></path>
  <path d="m496.60493,47.06528c-4.26284-1.58636-8.28118-2.83691-12.79974-3.2964-1.65924-.16322-3.18079-.08766-4.8187-.87584-1.7137-1.22546,1.21775-2.48696,2.17616-2.82042,4.33963-1.10137,9.20135-.71265,13.03898,1.77408,1.53367,1.03462,2.87253,2.35429,3.59739,4.23454.15961.41409-.04663.87921-.46075,1.03888-.25012.10405-.5021.04002-.73334-.05484h0Z"></path>
  <path d="m494.2252,49.68915c-2.73795,3.81262-8.1248,6.99548-12.80554,4.50895-.52978-.35937-1.12057-.78021-1.50585-1.29162-.82372-.86328-1.97562-3.52812.07192-3.61608-.00004.0001.90011.07756.90011.07756,1.70106.84187,3.26613,1.44433,5.30682,1.19745,2.30243-.31281,4.7935-1.3138,7.1038-2.09104.70716-.27401,1.3716.61335.92874,1.21478h0Z"></path>
  <path d="m477.25376,16.83172c2.38839,1.2718,3.52768,3.0983,5.0467,5.06205,1.44767,1.89458,2.90861,3.51047,4.58064,5.30988.21821.21401.21642.57228-.01421.77663-4.54819.54076-11.52769-5.89679-10.53068-10.75081.06102-.42173.56848-.63362.91756-.39775h0Z"></path>
  <path d="m550.91657,147.68884c.28661,6.08802-1.41304,12.02004-3.24746,17.75279-.00041.0006-.85568,2.42063-.85612,2.42113-.54447,1.26554-2.0102,1.8666-3.27326,1.35464-6.91613-2.79513-14.37847-4.80074-21.76415-6.7802-11.14659-2.90621-22.40441-5.51353-33.55826-8.49318-2.82271-.77886-5.66043-1.5705-8.43367-2.58417-4.57576-1.87576-8.79051-4.50609-12.91183-7.07426-3.2726-2.08331-6.47215-4.22934-9.6436-6.47754-.67581-.47906-.8353-1.41531-.3562-2.09113.47913-.67672,1.4179-.83485,2.09222-.35556,6.22551,4.25266,12.68417,8.57496,19.45632,11.83387,6.95164,3.01817,14.5301,4.19057,21.86051,6.04499,7.48542,1.71739,14.99677,3.39235,22.49513,5.18697,7.51855,1.77829,14.98889,3.54657,22.57166,5.89566l-3.27301,1.35455c.00012-.00061,1.17026-2.13166,1.17053-2.13226,1.85524-3.55708,3.58661-7.30421,4.72063-11.15104.44387-1.50337.85449-3.19503.98288-4.70977.09541-1.18448,1.87444-1.18277,1.9677.00452h0Z"></path>
  <path d="m576.85756,173.26909s-2.9647,7.48234-3.95293,9.74116c0,0,10.72939.42353,14.25879-3.10588l-10.30586-6.63528Z"></path>
  <path d="m565.98614,167.76231s6.41951,2.7519,9.2998,9.44488l4.11279.94041,2.4-5.1216-14.55831-6.53371-1.25427,1.27002Z"></path>
  <path d="m435.64448,88.69147c8.56609,10.18272,8.38317,25.41986,5.61338,37.74098-.4906,1.77266-.98416,3.54076-1.55164,5.28182-.28226.866-1.2131,1.3392-2.0791,1.05695-.79559-.25803-1.25047-1.06168-1.11578-1.85538.20632-1.76715.4866-3.50723.77004-5.24286,1.11098-8.50349,1.7386-17.41884-.13642-25.81843-.78833-3.24516-1.84026-6.65255-3.64173-9.45834-.89101-1.37774.99838-2.88509,2.14125-1.70474h0Z"></path>
  <path d="m375.6907,54.73448c-.07474-.47208.17888.04241.74494-.22232.24136-.11288.56467-.15417.90576-.29997.26441-.11302.38204-.65926.70536-.78722.27558-.10907.68567.07276,1.00346-.04432.28292-.10423.53987-.3253.85583-.43391.28831-.0991.63334-.06407.94885-.16535.29253-.0939.58651-.21126.90218-.30587.29597-.08871.6198-.10439.93592-.19276.29886-.08355.49975-.56224.81644-.64468.30133-.07845.58679-.26947.90412-.34623.30347-.07341.68277.13591,1.00075.06465.30535-.06844.63033-.0748.94895-.14072.30701-.06353.66035.08908.97958.02836.30849-.05868.60842-.17393.92823-.22957.30979-.05389.60095-.23779.92129-.28844.31096-.04917.63181-.0549.95263-.10066.31065-.04431.55586-.62352.87569-.66431.31178-.03976.63194-.09839.95238-.1345.31279-.03525.71264.7098,1.03362.67829.31369-.03079.58411-.56611.90557-.59306.31448-.02637.61956-.27467.94143-.29712.31518-.02198.67056.51457.99278.49656.31579-.01765.61271-.50974.93522-.52335.31631-.01335.65365.44493.97637.43567.31675-.00909.6337-.07389.95659-.07886.3171-.00488.63524-.33313.95823-.33386.31739-.00071.64197-.12176.96501-.11828.3176.00342.62412.78756.94715.79519.31772.0075.66586-.89621.9888-.88449.31538.01145.60574.71445.92607.73007.31573.0154.62117.20024.94167.21983.316.01932.62744.07334.94805.09686.3162.0232.68334-.57775,1.004-.55034.31633.02705.61698.26719.93763.29847.31639.03086.64444-.02166.96502.01343.31639.03463.60305.34328.92349.38215.31633.03837.70696-.47987,1.0272-.43727.31391.04176.55026.66615.86791.71207.31427.04544.61676.16601.93468.21563.31455.04909.67024-.15278.98834-.0995.31474.05272.6817-.17545.9999-.11854.31484.05631.51946.71942.83767.77992.3129.05949.62808.09933.94422.16296.31385.06317.7396-.40724,1.05663-.33991.31271.06641.68276-.1039.99853-.03336s.60922.26676.92805.34151c.30749.07209.61185.23469.93277.32142.30641.08281.58069.32444.89776.42019.30503.09211.71066-.09102,1.02416.0127.30345.1004.61447.22416.92458.33511.30172.10795.37473.84939.68159.96703.29988.11496.83283-.34718,1.13653-.22325.29792.12157.60385.25052.90443.38046.29587.1279.43337.62583.73084.76159.2937.13404.75279-.07359,1.04712.06787.29079.13976.55574.34882.84624.49559.28862.14582.34888.73582.63633.88833.28623.15186.81971-.14836,1.10392.0099.2836.15793.38711.63659.66783.80067.28069.16407.75283.01313,1.02977.18313.27747.17032.52832.39355.80117.5696.2739.17674.6715.18026.93986.36255.26993.18335.4307.53693.69414.72567.2655.19022.09123.97009.34923,1.16555.26054.19738.63096.23367.88292.43614.25495.20488.92524-.09176,1.17043.11809.24889.21301.51395.42388.75177.64176.24193.22164-.06804,1.01969.16137,1.24608.23385.23078,1.09674-.15188,1.31646.08355.2244.24043.05871.83791.26717,1.08289.21326.25062.05097.7822.24626,1.03723.20008.26129.75685.24178.93671.50735.1846.27258.77061.30364.93241.58035.16637.28453.31223.6125.45288.90099.14425.29587.05341.71746.16886,1.01703.11799.30618-.14526.73258-.05922,1.04214.0876.31517.57056.54023.62306.85841.053.32117.28946.65819.30466.9819.01517.32321-.65714.64663-.6817.97183-.02514.33302.68729.75851.633,1.06278-.05858.32839-1.0057.43719-1.09543.73362-.09618.31775.37896.82679.25045,1.10971-.13624.29995-.70791.35125-.87635.61432-.17613.27509.16902.9496-.03755,1.18696-.21255.24424-.76751.18329-1.00706.39044-.2434.21049-.67988.12774-.94562.30296-.26771.17652-.39204.55448-.67675.6983-.28616.14455-.44582.60165-.74339.71632-.29985.11555-.66838.08343-.97392.17186-.31014.08976-.73058-.30043-1.04044-.23526-.31788.06686-.58457.3115-.89555.35609-.32489.04658-.62284.23586-.93274.2622-.33195.02822-.65917-.12002-.96488-.11007-.34269.01115-.66817.59678-.96541.59179-.3618-.00607-.65835-.7442-.93114-.76236-.58802-.03914-.71184-.21821-1.045.11781-.33625.33914.41464.43275.42287,1.03139.00373.27104-.01483.61424-.03969.97584-.02011.29245-.03542.63437-.08538.9742-.04389.29852-.12983.62908-.204.95647-.06763.29855-.27298.59024-.37116.90709-.09128.29456-.7093.40288-.83127.70871-.11475.28773-.12772.60011-.27317.89405-.13746.27779-.11568.63365-.28355.91382-.15965.26647-.62831.31234-.81801.57824-.18084.25347.37776,1.08971.16739,1.34032-.20042.23877-.88801.06333-1.11714.29747-.21753.22228-.22004.68393-.46508.9003-.23414.20673-.75119.07874-1.01188.27856-.24803.19012-.20047.80884-.47377.99139-.2684.17928-.64603.21878-.93223.36616-.28578.14716-.5208.47001-.82218.58605-.29908.11516-.74844-.18453-1.06077-.09934-.3086.08417-.68064-.23115-1.00012-.17557-.31482.05476-.59282.08426-.91626.11187-.31829.02717-.5995.25484-.92426.25633-.3195.00146-.66623.63623-.99022.61339-.31884-.02247-.55898-.80938-.88048-.85484-.31655-.04476-.77562.70109-1.09313.63456-.31306-.06559-.42229-.98037-.73473-1.06663-.30854-.08518-.81466.48088-1.1211.37602-.30308-.10371-.464-.60002-.76359-.72251-.29676-.12134-.46427-.49746-.75621-.63678-.28959-.1382-.77063.11964-1.05411-.03583-.28158-.15442-.44182-.5081-.71603-.67911-.27264-.17004-.58714-.26282-.85119-.44885-.26288-.1852-.61638-.24792-.86945-.44856-.25204-.19983-.40797-.5135-.64899-.72823-.24021-.21401-.30537-.59681-.53338-.82521-.22734-.22773-.91258-.02553-1.12653-.26717-.21333-.24094-.22037-.66887-.41915-.92325-.19806-.25345-.59572-.37509-.7781-.64148-.18171-.26541-.5359-.45205-.70082-.72991-.16407-.27643.45692-.98929.31065-1.27766-.14643-.28869-.98329-.22187-1.12856-.50478-.14785-.28792.19108-.8235.04441-1.1055-.14933-.28711-.5366-.44647-.68474-.7275-.15089-.28626-.10241-.67494-.25208-.95495-.15252-.28535-.527-.4476-.67828-.72654-.15423-.28438-.54006-.43662-.69302-.71442-.15603-.28336-.15654-.64689-.31128-.92348-.15798-.28238-.08683-.68942-.24349-.96482-.16009-.28141-.14265-.66196-.3014-.93619-.1623-.28036-.34155-.54888-.50249-.82182-.16463-.2792-.50502-.45071-.66826-.72225-.16707-.27792-.319-.56097-.48465-.83098-.16965-.27653-.18962-.64276-.35782-.9111-.17325-.2764-.45712-.47971-.62888-.74756-.17599-.27445-.22143-.63082-.3959-.89644-.1789-.27235-.58935-.38696-.7667-.65017-.18198-.27008-.02445-.7693-.20487-1.02992-.18526-.26762-.3571-.54548-.54077-.80331-.18874-.26495-.76392-.24744-.95105-.50224-.19245-.26204-.67668-.29515-.86749-.54667-.19639-.25886-.39965-.49654-.59439-.74448-.20059-.25539-.01199-.81068-.21092-1.05473-.20537-.25195-.28768-.60228-.49137-.84242-.21047-.24814-.28061-.61885-.48939-.85468-.21585-.2438-.61027-.32657-.82443-.55754-.22149-.23888-.35467-.56114-.57447-.78666-.22741-.23332-.97818.06939-1.20393-.15004-.23359-.22705-.34502-.55841-.57699-.77104-.24002-.22001-.25517-.67773-.49363-.8828-.24696-.21238-.26023-.70825-.5057-.90517-.25355-.20339-.7505-.09443-1.00268-.28193-.26089-.19397-.30012-.70273-.55978-.88038-.26827-.18353-.82599.07494-1.09321-.09191-.27542-.17197-.37254-.63863-.64713-.7937-.28223-.15939-.47724-.50457-.7589-.64699-.2886-.14593-.70168-.055-.99002-.18408-.29448-.13183-.82394.32235-1.1185.20708-.29992-.11737-.37332-.83164-.6737-.93293-.30454-.10269-.66932-.02165-.97472-.10894-.30823-.08811-.63294-.1042-.94246-.17779-.31115-.07397-.69812.25926-1.01098.19877-.31339-.06059-.52819-.64626-.84371-.69451-.31506-.04818-.67561.26475-.99321.22769-.31612-.03689-.40989-.37457-.72893-.40163Z" fill="#339669"></path>
  <path d="m448.06423,113.68073c-.03793-.30709.09566-.66125.10417-.98607.0081-.30921-.19014-.68029-.13667-.99983.05111-.30541.7319-.47608.82732-.78592.09117-.29603-.09188-.68914.04224-.98486.12791-.282.1806-.62652.34974-.90446.16065-.26398.7018-.26665.90152-.5237.18933-.24369-.04511-.86621.18092-1.1009.21338-.22155.96279.12574,1.21021-.08546.23409-.19982.24535-.65735.51105-.84592.25152-.17851.50237-.35796.78317-.52472.26554-.15769.42604-.52986.71858-.67562.27593-.13748.75145.15412,1.05209.02845.28602-.11957.51768-.36362.82666-.47148.29314-.10233.46189-.63139.77618-.7223.30807-.08912.62013-.25235.93551-.32171.31297-.06883.72726.35382,1.04637.30339.31638-.05.61066-.26353.93206-.29649.31862-.03267.64755.05622.97011.03929.31995-.0168.6398.17453.96264.17224.32055-.00228.64529-.41273.96774-.40167.32061.01099.6197.41156.94125.43479.32027.02314.60917.26869.92945.30304.31962.03427.68102-.33277.99974-.28827.31876.04451.66087-.0564.9778-.00259.31804.054.66836-.04193.98364.0205.31697.06277.64425.10661.95749.17696.31578.07092.53081.56841.84184.64606.3145.07851.68786-.07742.99651.00697.31315.08562.63837.12932.94446.21994.31175.0923.45298.7206.75632.81698.31064.0987.7383-.18463,1.03895-.08282.30983.10492.64858.11419.94652.22112.30934.11101.45015.65444.74525.76617.30896.11698.87758-.45584,1.16932-.33971.3087.12289.30106.99432.58856,1.11432.30856.1288.75031-.09687,1.0321.02622.31099.13585.65224.16154.9275.28729.31585.1443.5099.48642.77407.61274.33434.15987.71652.11443.95912.23643.54495.27406,1.22243.0068,1.21158.48339-.01107.48681-.5718.33835-1.12504.65416-.23524.13428-.5258.26327-.845.46484-.24845.1569-.3957.50542-.68986.70636-.2502.17091-1.04236-.38437-1.3226-.17968-.24894.18183-.31844.6466-.58902.8564-.24638.19104-.63585.23667-.89862.45188-.24314.19914.04379,1.04601-.21217,1.26661-.23886.20586-.79916.0553-1.0482.28047-.23458.2121-.21251.70947-.45531.93922-.2304.21802-1.00167-.1106-1.23877.12376-.22634.22371-.20436.71083-.43621.94981-.22195.22878-.51226.40479-.73873.6479-.21835.23439-.29354.60934-.51562.85734-.21376.23871-.48246.43657-.69925.68817-.21004.24376-.28314.60886-.49565.86496-.20579.24799-.3918.5148-.59956.77458-.15088.18867-.31574.45495-.54155.7588-.1685.22674-.23071.58051-.43861.85228-.17884.23378-.88146.08227-1.08809.33814-.18945.2346.007.80771-.20479,1.0525-.20024.23144-.4892.40503-.70857.63862-.21166.22538-.26322.63462-.49194.85581-.22394.21658-.7285.14782-.96809.35461-.23717.2047-.6937.12176-.94553.3113-.25129.18913-.06673,1.01454-.33194,1.18307-.26602.16905-.81849-.13217-1.09785.01061-.28072.14348-.48611.45535-.77961.56668-.29404.11154-.58861.28045-.89479.35406-.30397.07308-.68776-.40053-1.00302-.37039-.30885.02952-.57973.24052-.89878.22357-.30713-.01632-.58996-.07972-.90596-.14385-.29911-.0607-.79251.47644-1.09907.36884-.28673-.10063-.46697-.57107-.75981-.71606-.30382-.15042-.79982.01583-1.05841-.14708-.28651-.18049-.59125-.40913-.8263-.60227-.2613-.21471.12981-1.09147-.07347-1.31814-.22501-.25091-.74596-.21557-.90745-.47616-.17564-.28342-.18227-.625-.29259-.91341-.11811-.30878-.36486-.56438-.42024-.87088-.05846-.32356-.47446-.64692-.4774-.95847-.00312-.33071.04312-.71236.08541-1.01824.04634-.33516.3785-.63447.45712-.92519.09338-.3453.02087-.74403.12393-1.00303.21258-.53424.83136-.23989.59492-.6516-.23053-.40144-.28043.12948-.82197.03285-.26804-.04783-.48289-.49649-.80542-.60333-.27891-.09238-.63455-.02288-.91812-.1757-.26468-.14264-.80357.0016-1.04412-.20644-.22696-.19629-.14733-.75909-.32924-1.02424-.16646-.24261-.62658-.40238-.737-.71093-.09782-.27335-.12422-.65398-.1651-.98494Z" fill="#339669"></path>
</svg>
