<svg preserveAspectRatio="xMidYMid meet" xmlns="http://www.w3.org/2000/svg">
    <symbol id="facebook" viewBox="0 0 64 64">
        <title>Facebook</title>
        <path d="M32.00124,0A32.05148,32.05148,0,0,0,26.6619,63.64653l.17449-.13865c-.058-.01145-.1165-.02141-.17449-.03311V40.89269H18.66656v-8.889H26.6619V24.89207c0-8.00032,5.15763-12.446,12.446-12.446a48.13509,48.13509,0,0,1,7.11415.70943v8.177H42.13232c-3.91055,0-4.79919,1.95652-4.79919,4.44572v6.223h8.533l-1.42134,8.889-7.11664.00747v22.5771c-.05651.01146-.11351.02116-.17026.03212l.17524.13964A32.051,32.051,0,0,0,32.00124,0"/>
    </symbol>
    <symbol id="instagram" viewBox="0 0 64 64">
        <title>Instagram</title>
        <path d="M21.33375,32A10.66672,10.66672,0,1,1,32,42.66656,10.66631,10.66631,0,0,1,21.33375,32m-5.76623,0A16.43248,16.43248,0,1,0,32,15.56721,16.43163,16.43163,0,0,0,15.56752,32M45.2421,14.91786a3.84,3.84,0,1,0,3.84-3.8394,3.84084,3.84084,0,0,0-3.84,3.8394M19.06975,58.04666a17.67222,17.67222,0,0,1-5.94131-1.1005,9.91422,9.91422,0,0,1-3.67952-2.39445,9.90919,9.90919,0,0,1-2.39445-3.6792,17.71539,17.71539,0,0,1-1.10176-5.94194C5.79884,41.55625,5.7656,40.54376,5.7656,32c0-8.54471.03324-9.55625.18711-12.9312a17.7162,17.7162,0,0,1,1.10176-5.94131A9.91683,9.91683,0,0,1,9.44892,9.44765a9.89961,9.89961,0,0,1,3.67952-2.39318,17.70822,17.70822,0,0,1,5.94131-1.1024C22.44375,5.79821,23.45624,5.7656,32,5.7656c8.54439,0,9.55624.03261,12.93183.18647a17.71764,17.71764,0,0,1,5.94131,1.1024,9.90475,9.90475,0,0,1,3.67952,2.39318,9.91445,9.91445,0,0,1,2.3935,3.67984,17.70588,17.70588,0,0,1,1.10208,5.94131c.15387,3.375.18553,4.38649.18553,12.9312,0,8.54376-.03166,9.55625-.18553,12.93057a17.70508,17.70508,0,0,1-1.10208,5.94194,10.6,10.6,0,0,1-6.073,6.07365,17.68159,17.68159,0,0,1-5.94131,1.1005c-3.37432.15513-4.38649.18711-12.93183.18711-8.54376,0-9.55625-.032-12.93025-.18711M18.807.19313A23.46346,23.46346,0,0,0,11.0392,1.67988,15.67856,15.67856,0,0,0,5.37175,5.3708a15.66078,15.66078,0,0,0-3.69061,5.66777A23.43906,23.43906,0,0,0,.19376,18.80634C.03736,22.2196,0,23.309,0,32s.03736,9.78008.19376,13.19366a23.4259,23.4259,0,0,0,1.48738,7.76682,15.65394,15.65394,0,0,0,3.69061,5.66809,15.68462,15.68462,0,0,0,5.66745,3.69155A23.47141,23.47141,0,0,0,18.807,63.80687C22.22055,63.963,23.30934,64,32,64c8.69161,0,9.781-.037,13.19429-.19313a23.47868,23.47868,0,0,0,7.76809-1.48675,16.365,16.365,0,0,0,9.35806-9.35964,23.46634,23.46634,0,0,0,1.48738-7.76682C63.96391,41.78008,64,40.691,64,32s-.03609-9.7804-.19218-13.19366a23.47953,23.47953,0,0,0-1.48738-7.76777A15.69392,15.69392,0,0,0,58.62983,5.3708a15.69187,15.69187,0,0,0-5.66745-3.69092A23.47073,23.47073,0,0,0,45.19429.19313C41.781.03736,40.69161,0,32,0c-8.69066,0-9.77945.03736-13.193.19313"/>
    </symbol>
    <symbol id="linkedin" viewBox="0 0 64 64">
        <title>LinkedIn</title>
        <path d="M59.25866.00041v.004H4.72266A4.67024,4.67024,0,0,0,0,4.61737V59.37963a4.67321,4.67321,0,0,0,4.72266,4.61791h54.536A4.683,4.683,0,0,0,64,59.37963V4.61338a4.68017,4.68017,0,0,0-4.74134-4.613m-40.2783,54.5301H9.48763V23.991h9.49273ZM14.239,19.81648a5.503,5.503,0,1,1,5.502-5.50392,5.50276,5.50276,0,0,1-5.502,5.50392m40.292,34.714H45.04822V39.68012c0-3.54128-.06323-8.1-4.932-8.1-4.939,0-5.69456,3.85837-5.69456,7.84209V54.52955H24.93885V23.991h9.10346v4.1734h.12742a9.977,9.977,0,0,1,8.98212-4.9331c9.6112,0,11.3832,6.32189,11.3832,14.54623Z"/>
    </symbol>
    <symbol id="tiktok" viewBox="0 0 64 64">
        <title>TikTok</title>
        <path d="M12.75842,60.32967a20.21622,20.21622,0,0,0,31.8321-16.58332V21.38289a26.151,26.151,0,0,0,15.29234,4.91846l-.00028-8.54425V15.30554a15.12209,15.12209,0,0,1-8.32847-2.48122l-.00043-.00043A15.36613,15.36613,0,0,1,44.8429,2.79361h-.00043A15.75694,15.75694,0,0,1,44.59,0H33.60322l-.0149,44.08825a9.247,9.247,0,0,1-9.22,8.90075,10.106,10.106,0,0,1-4.30518-1.055A9.22605,9.22605,0,0,1,27.0709,34.93483l-.00028-8.63348v-2.6001a20.53491,20.53491,0,0,0-2.7319-.1935A20.23691,20.23691,0,0,0,12.75814,60.32981"/>
    </symbol>
    <symbol id="twitter" viewBox="0 0 64 64">
        <title>Twitter</title>
        <path d="M20.12747,58.00679c24.15207,0,37.35952-20.009,37.35952-37.35953,0-.56881-.01148-1.13492-.03763-1.69736A26.725,26.725,0,0,0,64,12.151a26.21277,26.21277,0,0,1-7.54048,2.06706A13.17515,13.17515,0,0,0,62.233,6.95438a26.31369,26.31369,0,0,1-8.33744,3.18731,13.14166,13.14166,0,0,0-22.3761,11.97512,37.27753,37.27753,0,0,1-27.065-13.719A13.14085,13.14085,0,0,0,8.51886,25.92731a13.03226,13.03226,0,0,1-5.94659-1.64268c-.00287.05468-.00287.11-.00287.16771A13.13624,13.13624,0,0,0,13.10367,37.32516a13.10857,13.10857,0,0,1-5.92985.22495,13.145,13.145,0,0,0,12.2667,9.12,26.3503,26.3503,0,0,1-16.3082,5.62041A26.77633,26.77633,0,0,1,0,52.109a37.17255,37.17255,0,0,0,20.12747,5.89781"/>
    </symbol>
    <symbol id="youtube" viewBox="0 0 64 64">
        <title>YouTube</title>
        <path d="m62.57983,16.63037c-.74554-2.7569-2.89618-4.91577-5.65314-5.65314-3.70325-1.42969-39.5722-2.13019-49.97729.04095-2.75696.74554-4.91583,2.89624-5.6532,5.6532-1.67133,7.3327-1.79834,23.18616.04102,30.68274.74554,2.75696,2.89618,4.91583,5.65314,5.6532,7.33276,1.68774,42.19397,1.92535,49.97729,0,2.75696-.74554,4.91583-2.89624,5.6532-5.6532,1.78198-7.98816,1.90894-22.85846-.04102-30.72375Zm-36.78656,24.94769v-19.17163l16.71375,9.58582-16.71375,9.58582Z"/>
    </symbol>
    <symbol id="whatsapp" viewBox="0 0 64 64">
        <title>WhatsApp</title>
        <path d="m54.57414,9.30104C48.584,3.30659,40.61915.00432,32.13343,0,14.64678,0,.41671,14.22578.40937,31.71198c-.00671,5.56524,1.45386,11.0339,4.23446,15.85472L.14292,64l16.81704-4.40991c4.63371,2.5266,9.85034,3.85846,15.15926,3.86062h.01379c17.48405,0,31.7163-14.22836,31.72406-31.71327.00303-8.47406-3.2928-16.44196-9.28294-22.43639Zm-22.44113,48.79334h-.00992c-4.73244-.00261-9.37304-1.2728-13.42035-3.6748l-.96367-.57087-9.97968,2.61674,2.66416-9.72615-.62735-.9973c-2.64061-4.20181-4.03809-9.06517-4.03094-14.02785.00518-14.53318,11.83325-26.35696,26.37767-26.35696,6.99678-.01655,13.70935,2.76692,18.6413,7.7299,4.95945,4.93597,7.73782,11.65107,7.71566,18.64819-.00561,14.53404-11.8337,26.35911-26.36688,26.35911Zm15.98145-18.8168c.19792.33156.19748,1.91739-.46264,3.76835-.66009,1.85099-3.89596,3.63643-5.34984,3.76835-1.45388.13195-2.81634.65711-9.51189-1.98334-8.05711-3.17724-13.14485-11.43528-13.54064-11.96475-.39582-.52948-3.2363-4.29783-3.2363-8.19769s2.04844-5.81724,2.77453-6.61059c.72606-.79332,1.58494-.99167,2.11355-.99167l1.51941.01855c.5644.02284,1.18959.04958,1.78373,1.36936v.00045c.70451,1.5677,2.24463,5.48782,2.44297,5.88406.19832.39624.32982.86017.06595,1.38836-.26387.52816-.3945.85888-.79161,1.32151-.39708.46264-.83385,1.03306-1.18956,1.38833-.39753.39495-.81146.82438-.34837,1.61731.46306.7929,2.05363,3.38764,4.40991,5.48869,3.02848,2.70037,5.58095,3.53769,6.3743,3.93391.79335.39624,1.25512.32985,1.71775-.19919s1.97989-2.31363,2.50892-3.10695c.52906-.79335,1.05722-.66185,1.78373-.39711s4.62292,2.18213,5.41627,2.57879c.79332.39666,1.32193.59372,1.51983.92527Z" fill-rule="evenodd"/>
    </symbol>
</svg>